<svg width="239" height="220" viewBox="0 0 239 220" fill="none" xmlns="http://www.w3.org/2000/svg">
<path d="M189.335 33.9545C171.446 16.065 146.745 5.01562 119.472 5.01562C64.8977 5.01562 20.6711 49.2424 20.6711 103.817C20.6711 131.119 31.7206 155.819 49.6101 173.68C67.4996 191.569 92.1997 202.619 119.472 202.619C146.745 202.619 171.475 191.569 189.335 173.68C207.225 155.79 218.274 131.09 218.274 103.817C218.274 76.5443 207.195 51.8148 189.335 33.9545ZM119.443 162.396L93.3106 136.234L66.7103 109.634L92.8721 83.4722L119.472 110.073L146.073 83.4722L172.235 109.634L119.472 162.396H119.443ZM40.5774 83.3552C53.2637 70.6396 65.9794 57.9533 78.6657 45.2377H160.367C173.024 57.9533 185.681 70.6396 198.338 83.3552H40.5774Z" fill="#F16A21"/>
<path d="M160.369 45.2668H78.6676C65.9813 57.9824 53.2656 70.6688 40.5793 83.3844H198.311C185.654 70.6688 172.997 57.9824 160.34 45.2668H160.369Z" fill="#F7F8F9"/>
<path d="M119.443 110.101L92.8428 83.501L66.7103 109.663L93.3106 136.263L119.443 162.396L172.206 109.663L146.044 83.501L119.443 110.101Z" fill="#F7F8F9"/>
</svg>
