<svg width="321" height="294" viewBox="0 0 321 294" fill="none" xmlns="http://www.w3.org/2000/svg">
<path d="M230.335 37.0243C212.446 19.1348 187.745 8.08545 160.472 8.08545C105.898 8.08545 61.6711 52.3122 61.6711 106.887C61.6711 134.189 72.7206 158.889 90.6101 176.749C108.5 194.639 133.2 205.688 160.472 205.688C187.745 205.688 212.475 194.639 230.335 176.749C248.225 158.86 259.274 134.16 259.274 106.887C259.274 79.6142 248.195 54.8846 230.335 37.0243ZM160.443 165.466L134.311 139.304L107.71 112.704L133.872 86.542L160.472 113.142L187.073 86.542L213.235 112.704L160.472 165.466H160.443ZM81.5774 86.425C94.2637 73.7095 106.979 61.0231 119.666 48.3076H201.367C214.024 61.0231 226.681 73.7095 239.338 86.425H81.5774Z" fill="#F16A21"/>
<path d="M201.369 48.3367H119.668C106.981 61.0522 94.2656 73.7386 81.5793 86.4542H239.311C226.654 73.7386 213.997 61.0522 201.34 48.3367H201.369Z" fill="#F7F8F9"/>
<path d="M160.443 113.171L133.843 86.5708L107.71 112.733L134.311 139.333L160.443 165.466L213.206 112.733L187.044 86.5708L160.443 113.171Z" fill="#F7F8F9"/>
<path d="M254.468 228.605C250.194 232.312 249.917 237.679 249.862 238.758C249.834 239.367 249.848 239.878 249.862 240.238V278.539H262.034V250.197H277.152V240.238H262.034V237.845C262.034 236.144 263.209 235.12 264.98 235.12H277.138V225.465H263.057C261.799 225.479 257.843 225.687 254.468 228.619V228.605Z" fill="#F26B21"/>
<path d="M309.326 240.238L301.275 263.697L292.022 240.238H280.597C283.723 248.247 286.835 256.27 289.961 264.278L300.944 264.666L291.123 293.312H303.046C308.441 276.105 315.605 257.445 321 240.252H309.312L309.326 240.238Z" fill="#F26B21"/>
<path d="M0 235.106H16.1557V278.539H28.5907V235.106H44.8158V225.452H0V235.106Z" fill="#F26B21"/>
<path d="M136.372 258.455C136.33 256.546 136.234 252.701 134.034 248.856C133.785 248.399 133.509 247.97 133.204 247.555C131.71 245.439 129.76 243.752 127.326 242.493C124.532 241.041 121.24 240.307 117.45 240.238C117.284 240.238 117.118 240.238 116.952 240.238C113.051 240.238 109.621 241.041 106.647 242.645C105.623 243.198 104.669 243.835 103.811 244.554C102.179 245.84 100.824 247.389 99.7724 249.201C98.0849 252.065 97.2549 255.454 97.2549 259.354V259.423C97.2549 263.324 98.0987 266.713 99.7724 269.576C100.782 271.305 102.055 272.799 103.604 274.044C103.659 274.085 103.715 274.141 103.77 274.182C104.655 274.915 105.623 275.565 106.661 276.132C109.621 277.737 113.065 278.539 116.966 278.539C117.132 278.539 117.297 278.539 117.463 278.539C121.253 278.484 124.545 277.737 127.34 276.285C129.774 275.026 131.738 273.338 133.218 271.222C133.509 270.807 133.785 270.364 134.048 269.922C134.823 268.552 135.417 267.072 135.805 265.468H124.642C124.255 266.298 123.716 267.003 123.01 267.598C122.153 268.331 121.101 268.829 119.884 269.106C119.109 269.286 118.266 269.369 117.353 269.369C115.029 269.369 113.148 268.774 111.682 267.584C110.548 266.657 109.787 265.44 109.427 263.946C109.33 263.601 109.275 263.227 109.233 262.84C118.238 262.84 127.257 262.867 136.261 262.881C136.317 262.231 136.372 261.36 136.4 260.322C136.4 260.322 136.427 259.326 136.4 258.469L136.372 258.455ZM109.22 255.938C109.261 255.55 109.33 255.191 109.413 254.831C109.787 253.337 110.534 252.12 111.668 251.193C113.12 250.004 115.015 249.409 117.339 249.409C118.266 249.409 119.11 249.492 119.87 249.672C121.101 249.948 122.139 250.46 122.996 251.179C124.352 252.327 125.126 253.904 125.306 255.924H109.206L109.22 255.938Z" fill="#F26B21"/>
<path d="M189.084 240.238C183.524 240.238 179.222 242.189 176.193 246.075C175.086 244.249 173.565 242.825 171.642 241.787C169.719 240.75 167.548 240.238 165.127 240.238C163.011 240.238 161.019 240.667 159.179 241.525C157.34 242.382 155.749 243.627 154.435 245.245C150.77 243.848 147.104 242.465 143.438 241.068V278.525H155.348V258.054C155.348 255.73 155.97 253.863 157.201 252.438C158.446 251.027 160.092 250.308 162.167 250.308C164.034 250.308 165.473 250.93 166.497 252.161C167.506 253.406 168.018 255.135 168.018 257.362V278.525H179.844V258.054C179.844 255.73 180.453 253.863 181.67 252.438C182.887 251.027 184.52 250.308 186.595 250.308C188.462 250.308 189.914 250.93 190.951 252.161C191.989 253.406 192.501 255.135 192.501 257.362V278.525H204.41V255.855C204.41 251 203.041 247.182 200.316 244.402C197.591 241.621 193.842 240.224 189.098 240.224L189.084 240.238Z" fill="#F26B21"/>
<path d="M86.1582 244.858C83.6822 242.036 80.4041 240.501 76.3236 240.266C75.9501 240.238 75.5768 240.238 75.1895 240.238C70.4312 240.238 66.6136 241.884 63.7365 245.162V225.452H51.8271V278.539H63.7365V258.815C63.7365 256.283 64.4558 254.236 65.8944 252.673C67.3329 251.11 69.214 250.322 71.5378 250.322C73.5988 250.322 75.2171 250.958 76.3928 252.244C76.4343 252.286 76.4758 252.327 76.5034 252.369C77.693 253.738 78.2878 255.633 78.2878 258.054V278.525H90.1972V257.362C90.1972 253.697 89.5332 250.571 88.233 247.956C87.6659 246.822 86.9606 245.785 86.1445 244.844L86.1582 244.858Z" fill="#F26B21"/>
<path d="M223.608 240.238H211.436V278.539H223.608V240.238Z" fill="#F26B21"/>
<path d="M211.436 231.565L214.326 234.456L217.536 231.261L220.703 234.428L223.608 231.524L217.536 225.465L211.436 231.565Z" fill="#F26B21"/>
<path d="M242.809 240.238H230.637V278.539H242.809V240.238Z" fill="#F26B21"/>
<path d="M230.637 231.565L233.541 234.456L236.737 231.261L239.918 234.428L242.809 231.524L236.737 225.465L230.637 231.565Z" fill="#F26B21"/>
</svg>
